<svg id="Capa_1" enable-background="new 0 0 512.044 512.044" height="512" viewBox="0 0 512.044 512.044" width="512" xmlns="http://www.w3.org/2000/svg"><g><path d="m512.022 138.029c0-61.572-56.202-108.455-116.888-96.932-84.382-54.757-193.723-54.833-278.223 0-60.743-11.534-116.889 35.408-116.889 96.932 0 36.342 20.237 69.349 51.162 86.429-26.919 77.974-8.188 168.53 57.265 229.527l-23.902 23.902c-7.811 7.811-7.811 20.474 0 28.284 7.81 7.81 20.473 7.811 28.284 0l27.514-27.514c69.282 43.913 160.173 45.117 231.354 0l27.514 27.514c7.81 7.81 20.473 7.811 28.284 0s7.811-20.474 0-28.284l-23.902-23.902c65.854-61.37 83.982-152.138 57.265-229.527 30.925-17.08 51.162-50.087 51.162-86.429zm-161.229-76.166c-9.616 7.889-17.754 17.595-23.866 28.661-45.06-15.556-95.484-15.993-141.809 0-6.112-11.066-14.25-20.771-23.866-28.661 59.503-29.127 130.027-29.132 189.541 0zm-310.771 76.166c0-32.349 26.318-58.667 58.667-58.667 20.56 0 39.325 10.889 49.844 27.779-33.408 19.149-61.54 47.25-80.732 80.733-16.89-10.52-27.779-29.286-27.779-49.845zm216 334c-97.414 0-176.666-79.252-176.666-176.667s79.252-176.667 176.666-176.667 176.667 79.252 176.667 176.667c0 97.414-79.253 176.667-176.667 176.667zm188.222-284.156c-19.15-33.41-47.25-61.541-80.732-80.733 10.52-16.89 29.285-27.779 49.844-27.779 32.349 0 58.667 26.318 58.667 58.667-.001 20.561-10.889 39.326-27.779 49.845zm-95.413 172.014c7.811 7.811 7.811 20.474 0 28.284-7.811 7.811-20.474 7.81-28.284 0l-78.666-78.667c-3.751-3.75-5.858-8.838-5.858-14.142v-118c0-11.046 8.954-20 20-20s20 8.954 20 20v109.716z"/></g></svg>