<svg width="580" height="400" xmlns="http://www.w3.org/2000/svg">
 <!-- Created with Method Draw - http://github.com/duopixel/Method-Draw/ -->

 <g>
  <title>background</title>
  <rect fill="#fff" id="canvas_background" height="402" width="582" y="-1" x="-1"/>
  <g display="none" overflow="visible" y="0" x="0" height="100%" width="100%" id="canvasGrid">
   <rect fill="url(#gridpattern)" stroke-width="0" y="0" x="0" height="100%" width="100%"/>
  </g>
 </g>
 <g>
  <title>Layer 1</title>
  <!-- Created with Method Draw - http://github.com/duopixel/Method-Draw/ -->
  <!-- Created with Method Draw - http://github.com/duopixel/Method-Draw/ -->
  <g fill-opacity="0" stroke="null" id="svg_121">
   <g stroke="null" transform="matrix(0.7855725146114182,0,0,0.7855725146114182,-2534.5700623472867,-1718.2681377908418) " id="svg_103">
    <g stroke="null" id="svg_104">
     <path stroke="null" id="svg_105" d="m3854.787378,2217.023491l-518.462,0l193.159,203.495l-0.014,269.327l132.173,-68.37l-0.014,-200.957l193.158,-203.495zm-305.625,440.466l0.014,-244.827l-167.005,-175.947l426.769,0l-167.004,175.947l0.014,196.832l-92.788,47.995z"/>
    </g>
   </g>
   <g stroke="null" transform="matrix(0.7855725146114182,0,0,0.7855725146114182,-2534.5700623472867,-1718.2681377908418) " id="svg_106"/>
   <g stroke="null" transform="matrix(0.7855725146114182,0,0,0.7855725146114182,-2534.5700623472867,-1718.2681377908418) " id="svg_107"/>
   <g stroke="null" transform="matrix(0.7855725146114182,0,0,0.7855725146114182,-2534.5700623472867,-1718.2681377908418) " id="svg_108"/>
   <g stroke="null" transform="matrix(0.7855725146114182,0,0,0.7855725146114182,-2534.5700623472867,-1718.2681377908418) " id="svg_109"/>
   <g stroke="null" transform="matrix(0.7855725146114182,0,0,0.7855725146114182,-2534.5700623472867,-1718.2681377908418) " id="svg_110"/>
   <g stroke="null" transform="matrix(0.7855725146114182,0,0,0.7855725146114182,-2534.5700623472867,-1718.2681377908418) " id="svg_111"/>
   <g stroke="null" transform="matrix(0.7855725146114182,0,0,0.7855725146114182,-2534.5700623472867,-1718.2681377908418) " id="svg_112"/>
   <g stroke="null" transform="matrix(0.7855725146114182,0,0,0.7855725146114182,-2534.5700623472867,-1718.2681377908418) " id="svg_113"/>
   <g stroke="null" transform="matrix(0.7855725146114182,0,0,0.7855725146114182,-2534.5700623472867,-1718.2681377908418) " id="svg_114"/>
   <g stroke="null" transform="matrix(0.7855725146114182,0,0,0.7855725146114182,-2534.5700623472867,-1718.2681377908418) " id="svg_115"/>
   <g stroke="null" transform="matrix(0.7855725146114182,0,0,0.7855725146114182,-2534.5700623472867,-1718.2681377908418) " id="svg_116"/>
   <g stroke="null" transform="matrix(0.7855725146114182,0,0,0.7855725146114182,-2534.5700623472867,-1718.2681377908418) " id="svg_117"/>
   <g stroke="null" transform="matrix(0.7855725146114182,0,0,0.7855725146114182,-2534.5700623472867,-1718.2681377908418) " id="svg_118"/>
   <g stroke="null" transform="matrix(0.7855725146114182,0,0,0.7855725146114182,-2534.5700623472867,-1718.2681377908418) " id="svg_119"/>
   <g stroke="null" transform="matrix(0.7855725146114182,0,0,0.7855725146114182,-2534.5700623472867,-1718.2681377908418) " id="svg_120"/>
  </g>
  <g stroke="null" id="svg_144">
   <g stroke="null" transform="matrix(0.8299343652844989,0,0,0.8299343652844989,-3347.135052036044,-2307.9243768642773) " id="svg_126">
    <g stroke="null" id="svg_127">
     <path fill="#aaaaaa" stroke="null" id="svg_128" d="m4644.077723,2787.621025l-518.462,0l193.159,203.495l-0.014,269.327l132.173,-68.37l-0.014,-200.957l193.158,-203.495zm-305.625,440.466l0.014,-244.827l-167.005,-175.947l426.769,0l-167.004,175.947l0.014,196.832l-92.788,47.995z"/>
    </g>
   </g>
   <g stroke="null" transform="matrix(0.8299343652844989,0,0,0.8299343652844989,-3347.135052036044,-2307.9243768642773) " id="svg_129"/>
   <g stroke="null" transform="matrix(0.8299343652844989,0,0,0.8299343652844989,-3347.135052036044,-2307.9243768642773) " id="svg_130"/>
   <g stroke="null" transform="matrix(0.8299343652844989,0,0,0.8299343652844989,-3347.135052036044,-2307.9243768642773) " id="svg_131"/>
   <g stroke="null" transform="matrix(0.8299343652844989,0,0,0.8299343652844989,-3347.135052036044,-2307.9243768642773) " id="svg_132"/>
   <g stroke="null" transform="matrix(0.8299343652844989,0,0,0.8299343652844989,-3347.135052036044,-2307.9243768642773) " id="svg_133"/>
   <g stroke="null" transform="matrix(0.8299343652844989,0,0,0.8299343652844989,-3347.135052036044,-2307.9243768642773) " id="svg_134"/>
   <g stroke="null" transform="matrix(0.8299343652844989,0,0,0.8299343652844989,-3347.135052036044,-2307.9243768642773) " id="svg_135"/>
   <g stroke="null" transform="matrix(0.8299343652844989,0,0,0.8299343652844989,-3347.135052036044,-2307.9243768642773) " id="svg_136"/>
   <g stroke="null" transform="matrix(0.8299343652844989,0,0,0.8299343652844989,-3347.135052036044,-2307.9243768642773) " id="svg_137"/>
   <g stroke="null" transform="matrix(0.8299343652844989,0,0,0.8299343652844989,-3347.135052036044,-2307.9243768642773) " id="svg_138"/>
   <g stroke="null" transform="matrix(0.8299343652844989,0,0,0.8299343652844989,-3347.135052036044,-2307.9243768642773) " id="svg_139"/>
   <g stroke="null" transform="matrix(0.8299343652844989,0,0,0.8299343652844989,-3347.135052036044,-2307.9243768642773) " id="svg_140"/>
   <g stroke="null" transform="matrix(0.8299343652844989,0,0,0.8299343652844989,-3347.135052036044,-2307.9243768642773) " id="svg_141"/>
   <g stroke="null" transform="matrix(0.8299343652844989,0,0,0.8299343652844989,-3347.135052036044,-2307.9243768642773) " id="svg_142"/>
   <g stroke="null" transform="matrix(0.8299343652844989,0,0,0.8299343652844989,-3347.135052036044,-2307.9243768642773) " id="svg_143"/>
  </g>
 </g>
</svg>