<svg width="642" height="482" xmlns="http://www.w3.org/2000/svg">
 <!-- Created with Method Draw - http://github.com/duopixel/Method-Draw/ -->

 <g>
  <title>background</title>
  <rect fill="#fff" id="canvas_background" height="484" width="644" y="-1" x="-1"/>
  <g display="none" overflow="visible" y="0" x="0" height="100%" width="100%" id="canvasGrid">
   <rect fill="url(#gridpattern)" stroke-width="0" y="1" x="1" height="480" width="640"/>
  </g>
 </g>
 <g>
  <title>Layer 1</title>
  <g stroke="null" id="svg_23">
   <g stroke="null" transform="matrix(0.7875012145093261,0,0,0.7875012145093261,-3164.0722715656707,-2182.3411031173355) " id="svg_5">
    <g stroke="null" id="svg_6">
     <path stroke="null" fill="#cccccc" id="svg_7" d="m4689.975953,2842.112513l-518.462,0l193.159,203.495l-0.014,269.327l132.173,-68.37l-0.014,-200.957l193.158,-203.495zm-305.625,440.466l0.014,-244.827l-167.005,-175.947l426.769,0l-167.004,175.947l0.014,196.832l-92.788,47.995z"/>
    </g>
   </g>
   <g stroke="null" transform="matrix(0.7875012145093261,0,0,0.7875012145093261,-3164.0722715656707,-2182.3411031173355) " id="svg_8"/>
   <g stroke="null" transform="matrix(0.7875012145093261,0,0,0.7875012145093261,-3164.0722715656707,-2182.3411031173355) " id="svg_9"/>
   <g stroke="null" transform="matrix(0.7875012145093261,0,0,0.7875012145093261,-3164.0722715656707,-2182.3411031173355) " id="svg_10"/>
   <g stroke="null" transform="matrix(0.7875012145093261,0,0,0.7875012145093261,-3164.0722715656707,-2182.3411031173355) " id="svg_11"/>
   <g stroke="null" transform="matrix(0.7875012145093261,0,0,0.7875012145093261,-3164.0722715656707,-2182.3411031173355) " id="svg_12"/>
   <g stroke="null" transform="matrix(0.7875012145093261,0,0,0.7875012145093261,-3164.0722715656707,-2182.3411031173355) " id="svg_13"/>
   <g stroke="null" transform="matrix(0.7875012145093261,0,0,0.7875012145093261,-3164.0722715656707,-2182.3411031173355) " id="svg_14"/>
   <g stroke="null" transform="matrix(0.7875012145093261,0,0,0.7875012145093261,-3164.0722715656707,-2182.3411031173355) " id="svg_15"/>
   <g stroke="null" transform="matrix(0.7875012145093261,0,0,0.7875012145093261,-3164.0722715656707,-2182.3411031173355) " id="svg_16"/>
   <g stroke="null" transform="matrix(0.7875012145093261,0,0,0.7875012145093261,-3164.0722715656707,-2182.3411031173355) " id="svg_17"/>
   <g stroke="null" transform="matrix(0.7875012145093261,0,0,0.7875012145093261,-3164.0722715656707,-2182.3411031173355) " id="svg_18"/>
   <g stroke="null" transform="matrix(0.7875012145093261,0,0,0.7875012145093261,-3164.0722715656707,-2182.3411031173355) " id="svg_19"/>
   <g stroke="null" transform="matrix(0.7875012145093261,0,0,0.7875012145093261,-3164.0722715656707,-2182.3411031173355) " id="svg_20"/>
   <g stroke="null" transform="matrix(0.7875012145093261,0,0,0.7875012145093261,-3164.0722715656707,-2182.3411031173355) " id="svg_21"/>
   <g stroke="null" transform="matrix(0.7875012145093261,0,0,0.7875012145093261,-3164.0722715656707,-2182.3411031173355) " id="svg_22"/>
  </g>
 </g>
</svg>