<?xml version="1.0" encoding="UTF-8"?>
<!DOCTYPE svg PUBLIC "-//W3C//DTD SVG 1.1//EN" "http://www.w3.org/Graphics/SVG/1.1/DTD/svg11.dtd">
<!-- Creator: CorelDRAW 2017 -->
<svg xmlns="http://www.w3.org/2000/svg" xml:space="preserve" width="0.22222in" height="0.22222in" version="1.1" style="shape-rendering:geometricPrecision; text-rendering:geometricPrecision; image-rendering:optimizeQuality; fill-rule:evenodd; clip-rule:evenodd"
viewBox="0 0 222.22 222.22"
 xmlns:xlink="http://www.w3.org/1999/xlink">
 <defs>
  <style type="text/css">
   <![CDATA[
    .fil0 {fill:#7B7B7B;fill-rule:nonzero}
   ]]>
  </style>
 </defs>
 <g id="Layer_x0020_1">
  <metadata id="CorelCorpID_0Corel-Layer"/>
  <g id="_2607175435680">
   <path class="fil0" d="M45.93 144.68l-25.07 14.47c-1.69,0.98 -2.26,3.13 -1.29,4.81 0.65,1.13 1.83,1.76 3.05,1.76 0.59,0 1.2,-0.15 1.76,-0.47l25.07 -14.47c1.68,-0.97 2.26,-3.13 1.29,-4.81 -0.98,-1.69 -3.13,-2.26 -4.81,-1.3z"/>
   <path class="fil0" d="M54.74 111.11c0,-1.94 -1.58,-3.52 -3.52,-3.52l-42.28 -0c-1.94,0 -3.52,1.58 -3.52,3.52 0,1.95 1.58,3.52 3.52,3.52l42.28 0c1.94,0 3.52,-1.58 3.52,-3.52z"/>
   <path class="fil0" d="M65.78 39.65c0.65,1.13 1.84,1.76 3.06,1.76 0.6,0 1.2,-0.15 1.76,-0.47 1.69,-0.97 2.26,-3.13 1.29,-4.81l-8.82 -15.27c-0.98,-1.69 -3.13,-2.26 -4.81,-1.29 -1.69,0.97 -2.26,3.13 -1.29,4.81l8.81 15.27z"/>
   <path class="fil0" d="M20.86 63.07l35.63 20.58c0.56,0.32 1.16,0.47 1.76,0.47 1.22,0 2.4,-0.63 3.06,-1.76 0.97,-1.69 0.4,-3.84 -1.29,-4.81l-35.64 -20.59c-1.68,-0.98 -3.85,-0.4 -4.81,1.29 -0.97,1.69 -0.4,3.84 1.29,4.81z"/>
   <path class="fil0" d="M160.91 82.37c0.65,1.13 1.83,1.76 3.06,1.76 0.59,0 1.2,-0.15 1.76,-0.47l35.65 -20.57c1.69,-0.98 2.26,-3.13 1.29,-4.82 -0.97,-1.68 -3.13,-2.26 -4.81,-1.29l-35.65 20.58c-1.69,0.97 -2.26,3.13 -1.29,4.81z"/>
   <path class="fil0" d="M151.63 40.94c0.56,0.32 1.16,0.47 1.76,0.47 1.22,0 2.41,-0.63 3.06,-1.76l8.81 -15.27c0.97,-1.69 0.4,-3.84 -1.29,-4.81 -1.69,-0.98 -3.84,-0.39 -4.81,1.29l-8.81 15.27c-0.97,1.69 -0.4,3.84 1.29,4.81z"/>
   <path class="fil0" d="M147.45 209.94c-0.09,-0.03 -9.85,-3.33 -16.24,-9.72 -6.33,-6.33 -9.54,-12.6 -9.54,-18.65l0 -63.42c0,-0.72 0.15,-7.05 5.29,-7.05 3.78,0 5.27,7.32 5.3,7.32l3.52 45.8c0.15,1.93 1.81,3.4 3.78,3.24 1.94,-0.15 3.39,-1.84 3.24,-3.78l-3.56 -46.11c-0.83,-5.02 -4.36,-13.51 -12.28,-13.51 -9.76,0 -12.33,9.22 -12.33,14.09l0 63.42c0,7.98 3.91,15.93 11.6,23.63 7.55,7.55 18.53,11.27 18.99,11.42 0.37,0.13 0.75,0.18 1.12,0.18 1.47,0 2.85,-0.93 3.34,-2.41 0.61,-1.85 -0.39,-3.84 -2.23,-4.46z"/>
   <path class="fil0" d="M95.25 104.06c-7.92,0 -11.44,8.5 -12.32,13.82l-3.52 45.8c-0.15,1.94 1.3,3.64 3.24,3.78 1.91,0.15 3.64,-1.3 3.79,-3.24l3.48 -45.49c0.01,-0.07 1.51,-7.63 5.33,-7.63 4.96,0 5.28,5.88 5.29,7.05l0 63.42c0,6.04 -3.21,12.32 -9.54,18.65 -6.35,6.35 -16.15,9.69 -16.24,9.72 -1.84,0.62 -2.84,2.62 -2.22,4.46 0.49,1.47 1.87,2.4 3.34,2.4 0.37,0 0.74,-0.06 1.12,-0.18 0.46,-0.15 11.44,-3.87 18.99,-11.42 7.7,-7.7 11.6,-15.65 11.6,-23.63l0 -63.42c0,-4.87 -2.58,-14.09 -12.33,-14.09z"/>
   <path class="fil0" d="M208.35 210.46l-42.32 -31.74c-2.23,-1.63 -4.64,-7.39 -5.64,-11.77l-10.6 -70.63c-0.77,-3.85 -1.5,-7.57 -2.2,-11.15 -6.29,-32.17 -10.08,-51.58 -22.4,-51.58 -7.41,0 -10.57,3.16 -10.57,10.57 0,7.1 3.39,51.24 3.54,53.12 0.15,1.94 1.85,3.39 3.78,3.24 1.94,-0.15 3.39,-1.84 3.24,-3.78 -0.04,-0.46 -3.52,-45.75 -3.52,-52.58 0,-3.52 0.07,-3.52 3.52,-3.52 6.52,0 10.87,22.29 15.48,45.89 0.7,3.59 1.43,7.32 2.17,11.01l10.61 70.72c0.28,1.22 2.86,12.12 8.37,16.13l42.28 31.71c0.63,0.48 1.38,0.7 2.11,0.7 1.07,0 2.13,-0.48 2.82,-1.41 1.17,-1.56 0.85,-3.77 -0.7,-4.93z"/>
   <path class="fil0" d="M197.83 165.26c0.56,0.32 1.17,0.47 1.76,0.47 1.22,0 2.4,-0.63 3.06,-1.76 0.97,-1.69 0.4,-3.84 -1.29,-4.81l-25.07 -14.48c-1.69,-0.97 -3.84,-0.39 -4.81,1.3 -0.97,1.69 -0.39,3.84 1.29,4.81l25.07 14.48z"/>
   <path class="fil0" d="M213.29 107.59l-42.28 0c-1.94,0 -3.52,1.58 -3.52,3.52 0,1.94 1.58,3.52 3.52,3.52l42.28 0c1.94,0 3.52,-1.57 3.52,-3.52 0,-1.95 -1.58,-3.52 -3.52,-3.52z"/>
   <path class="fil0" d="M114.63 8.94c0,-1.94 -1.58,-3.52 -3.52,-3.52 -1.94,0 -3.52,1.58 -3.52,3.52l0 10.57c0,1.95 1.58,3.52 3.52,3.52 1.94,0 3.52,-1.57 3.52,-3.52l0 -10.57z"/>
   <path class="fil0" d="M97.02 33.6c-12.32,0 -16.11,19.42 -22.4,51.58 -0.7,3.58 -1.43,7.3 -2.22,11.32l-10.58 70.54c-0.56,4.39 -3.29,10.22 -5.67,11.72l-42.28 31.71c-1.56,1.17 -1.87,3.37 -0.7,4.93 0.69,0.92 1.75,1.41 2.82,1.41 0.73,0 1.48,-0.22 2.11,-0.7l42.03 -31.54c4.87,-3.04 8.06,-11.73 8.67,-16.56l10.54 -70.3c0.77,-3.86 1.5,-7.59 2.2,-11.18 4.61,-23.6 8.97,-45.89 15.48,-45.89 3.46,0 3.52,0 3.52,3.52 0,6.83 -3.48,52.12 -3.51,52.57 -0.15,1.94 1.3,3.64 3.24,3.78 1.91,0.15 3.63,-1.3 3.78,-3.24 0.14,-1.88 3.53,-46.02 3.53,-53.12 0,-7.41 -3.16,-10.57 -10.57,-10.57z"/>
  </g>
 </g>
</svg>
