<?xml version="1.0" encoding="iso-8859-1"?>
<!-- Generator: Adobe Illustrator 19.0.0, SVG Export Plug-In . SVG Version: 6.00 Build 0)  -->
<svg xmlns="http://www.w3.org/2000/svg" xmlns:xlink="http://www.w3.org/1999/xlink" version="1.1" id="Capa_1" x="0px" y="0px" viewBox="0 0 511.999 511.999" style="enable-background:new 0 0 511.999 511.999;" xml:space="preserve" width="32px" height="32px">
<g>
	<g>
		<path d="M435.707,110.557c-20.979,0-38.047,16.847-38.047,37.555c0,20.707,17.068,37.554,38.047,37.554    s38.047-16.847,38.047-37.554C473.754,127.403,456.686,110.557,435.707,110.557z M435.707,170.665    c-12.708,0-23.047-10.117-23.047-22.554c0-12.436,10.339-22.555,23.047-22.555s23.047,10.118,23.047,22.555    C458.754,160.548,448.415,170.665,435.707,170.665z" fill="#000000"/>
	</g>
</g>
<g>
	<g>
		<path d="M478.137,347.955h-1.101c-0.388-7.77-2.86-14.999-6.868-21.141c8.006-22.121,12.382-45.965,12.382-70.815    c0-15.486-1.718-30.576-4.935-45.108c21.05-13.736,34.384-37.343,34.384-62.78c0-18.006-6.561-35.426-18.473-49.051    c-2.727-3.119-7.465-3.435-10.583-0.71c-3.118,2.727-3.436,7.465-0.71,10.583C491.756,119.824,497,133.738,497,148.111    c0,24.705-15.783,47.275-39.274,56.163c-1.602,0.605-2.948,1.742-3.815,3.219l-18.205,31.021l-18.205-31.021    c-0.867-1.478-2.213-2.613-3.814-3.219c-23.491-8.887-39.273-31.457-39.273-56.163c0-33.184,27.496-60.181,61.293-60.181    c6.5,0,12.895,0.992,19.008,2.948c3.945,1.264,8.166-0.912,9.429-4.857s-0.912-8.167-4.857-9.43    c-7.593-2.43-15.526-3.661-23.58-3.661c-15.463,0-29.858,4.569-41.892,12.392c-33.964-23.948-75.354-38.038-119.979-38.038    c-89.242,0-165.563,56.309-195.348,135.258c-22.322,4.768-39.197,24.42-39.678,48.031h-2.858C16.128,230.574,0,246.703,0,266.528    s16.128,35.954,35.953,35.954h34.413c8.518,37.304,27.054,70.832,52.62,97.594c0.448,0.635,0.982,1.185,1.585,1.642    c37.921,38.843,90.821,62.997,149.265,62.997c54.188,0,103.607-20.77,140.746-54.752h63.556c17.095,0,31.003-13.908,31.003-31.004    C509.14,361.863,495.232,347.955,478.137,347.955z M464.116,219.74c1.785,9.368,2.895,18.971,3.272,28.76h-20.15L464.116,219.74z     M405.865,217.301l18.31,31.199h-41.623c-0.315-17.446-1.724-34.523-4.165-50.922    C385.823,205.976,395.151,212.804,405.865,217.301z M382.552,263.5h84.846c-0.683,17.821-3.78,35.033-8.982,51.316    c-6.864-4.697-15.154-7.457-24.081-7.457c-15.019,0-28.89,8.027-36.55,20.588c-3.035-0.896-6.197-1.358-9.388-1.358    c-4.403,0-8.621,0.854-12.486,2.417C379.884,308.25,382.142,286.185,382.552,263.5z M381.629,95.135    c-8.126,8.055-14.4,17.915-18.179,28.9c-1.531,0.297-3.07,0.586-4.62,0.867c-2.096-5.021-4.318-9.881-6.671-14.555    c-8.803-17.486-18.971-31.569-30.083-41.969C343.59,73.917,363.671,83.061,381.629,95.135z M281.335,62.93    c21.332,3.605,41.491,22.509,57.425,54.162c1.676,3.329,3.282,6.763,4.821,10.285c-19.675,2.812-40.624,4.415-62.246,4.717V62.93z     M281.335,147.095c23.618-0.322,46.504-2.165,67.931-5.405c11.207,31.056,17.56,67.907,18.284,106.81h-86.215V147.095z     M266.335,147.094V248.5h-49.268c-6.234-10.707-17.83-17.926-31.087-17.926h-4.979c-0.036-0.105-0.077-0.207-0.114-0.312    c2.09-32.145,8.09-62.403,17.528-88.563C219.836,144.938,242.724,146.772,266.335,147.094z M266.334,62.93v69.164    c-21.613-0.302-42.553-1.904-62.222-4.712c1.537-3.517,3.124-6.966,4.797-10.29C224.843,85.439,245.003,66.534,266.334,62.93z     M225.606,68.368c-11.117,10.402-21.288,24.486-30.094,41.98c-2.352,4.673-4.562,9.548-6.657,14.568    c-16.519-2.993-31.948-6.882-45.894-11.601C166.066,92.103,194.318,76.416,225.606,68.368z M131.206,125.067    c15.644,5.786,33.233,10.512,52.204,14.085c-7.721,22.117-13.137,46.837-15.995,72.997c-6.415-4.703-14.322-7.441-22.822-7.441    c-4.122,0-8.204,0.663-12.087,1.945c-7.869-13.651-21.899-22.966-37.602-24.861C103.66,160.762,116.02,141.598,131.206,125.067z     M85.764,302.482H118c4.142,0,7.5-3.357,7.5-7.5c0-4.142-3.358-7.5-7.5-7.5H35.953c-11.553,0-20.953-9.4-20.953-20.954    c0-11.554,9.399-20.954,20.953-20.954h10.834c2.186,0,4.263-0.953,5.688-2.611c1.425-1.657,2.056-3.855,1.728-6.016    c-0.267-1.754-0.402-3.551-0.402-5.339c0-19.398,15.782-35.18,35.18-35.18c14.525,0,27.746,9.125,32.899,22.707    c0.784,2.066,2.438,3.681,4.522,4.414c2.084,0.734,4.385,0.512,6.289-0.607c3.601-2.116,7.717-3.234,11.903-3.234    c11.539,0,21.299,8.246,23.206,19.607c0.607,3.613,3.733,6.259,7.396,6.259h10.784c11.554,0,20.954,9.4,20.954,20.954    c0,11.554-9.4,20.954-20.954,20.954H155c-4.142,0-7.5,3.357-7.5,7.5s3.358,7.5,7.5,7.5h12.703    c2.927,25.188,8.239,48.992,15.699,70.367c-18.968,3.573-36.555,8.299-52.197,14.084    C109.572,363.386,93.677,334.492,85.764,302.482z M142.955,398.679c13.946-4.718,29.38-8.603,45.897-11.595    c2.097,5.02,4.307,9.895,6.66,14.568c8.804,17.489,18.973,31.572,30.086,41.973C194.311,435.576,166.06,419.891,142.955,398.679z     M266.336,449.07c-21.331-3.605-41.491-22.509-57.425-54.162c-1.677-3.329-3.281-6.763-4.82-10.287    c19.676-2.81,40.624-4.413,62.245-4.715V449.07z M273.836,344.5c-4.142,0-7.5,3.357-7.5,7.5v12.906    c-23.612,0.321-46.5,2.156-67.922,5.395c-7.38-20.453-12.666-43.406-15.614-67.818h3.181c19.825,0,35.954-16.129,35.954-35.954    c0-1.02-0.053-2.029-0.137-3.028h44.538V311c0,4.143,3.358,7.5,7.5,7.5c4.142,0,7.5-3.357,7.5-7.5v-47.5h86.216    c-0.559,29.94-4.459,58.652-11.332,84.455h-2.01c-12.992,0-24.136,8.036-28.741,19.396c-14.288-1.413-29.06-2.243-44.133-2.449    V352C281.336,347.857,277.978,344.5,273.836,344.5z M281.335,449.069v-69.167c14.371,0.201,28.44,0.983,42.042,2.308    c0.868,8.291,5.015,15.621,11.12,20.662C319.3,429.726,300.808,445.777,281.335,449.069z M322.054,443.641    c9.434-8.828,18.181-20.324,25.997-34.294c1.991,0.403,4.051,0.616,6.159,0.616h37.052    C370.958,425.485,347.512,437.095,322.054,443.641z M478.137,394.963H354.209c-8.825,0-16.004-7.18-16.004-16.004    c0-8.824,7.179-16.004,16.004-16.004h8.908c3.663,0,6.79-2.646,7.397-6.258c1.47-8.755,8.991-15.108,17.883-15.108    c3.226,0,6.397,0.861,9.171,2.491c1.905,1.12,4.205,1.342,6.29,0.608c2.084-0.733,3.738-2.349,4.522-4.414    c4.065-10.716,14.496-17.915,25.956-17.915c15.304,0,27.755,12.45,27.755,27.754c0,1.412-0.107,2.83-0.317,4.215    c-0.328,2.161,0.302,4.358,1.727,6.016c1.425,1.658,3.502,2.611,5.688,2.611h8.949c8.824,0,16.003,7.18,16.003,16.004    C494.14,387.783,486.961,394.963,478.137,394.963z" fill="#000000"/>
	</g>
</g>
<g>
</g>
<g>
</g>
<g>
</g>
<g>
</g>
<g>
</g>
<g>
</g>
<g>
</g>
<g>
</g>
<g>
</g>
<g>
</g>
<g>
</g>
<g>
</g>
<g>
</g>
<g>
</g>
<g>
</g>
</svg>
