<?xml version="1.0" encoding="UTF-8"?>
<!DOCTYPE svg PUBLIC "-//W3C//DTD SVG 1.1//EN" "http://www.w3.org/Graphics/SVG/1.1/DTD/svg11.dtd">
<!-- Creator: CorelDRAW 2017 -->
<svg xmlns="http://www.w3.org/2000/svg" xml:space="preserve" width="0.22222in" height="0.22222in" version="1.1" style="shape-rendering:geometricPrecision; text-rendering:geometricPrecision; image-rendering:optimizeQuality; fill-rule:evenodd; clip-rule:evenodd"
viewBox="0 0 222.22 222.22"
 xmlns:xlink="http://www.w3.org/1999/xlink">
 <defs>
  <style type="text/css">
   <![CDATA[
    .fil0 {fill:#7B7B7B;fill-rule:nonzero}
   ]]>
  </style>
 </defs>
 <g id="Layer_x0020_1">
  <metadata id="CorelCorpID_0Corel-Layer"/>
  <g id="_2607058900416">
   <path class="fil0" d="M47.75 195.59l83.81 0c4.08,-0.01 8.06,-1.44 11.2,-4.05l42.87 -35.41c3.03,-2.17 3.85,-6.09 2.07,-9.07 -0.09,-0.15 -0.19,-0.3 -0.29,-0.44 -1.06,-1.48 -2.6,-2.44 -4.37,-2.73 -1.77,-0.28 -3.53,0.13 -4.98,1.17l-40.28 28.76c-0.6,0.43 -1.32,0.66 -2.05,0.66l-42.24 0c-5.82,0 -10.56,-4.74 -10.56,-10.56 0,-5.82 4.74,-10.56 10.56,-10.56l22.88 0c2.91,0 5.28,-2.37 5.28,-5.28 -0.09,-3.08 -2.53,-5.28 -5.45,-5.28l-45.87 0c-2.41,0.02 -4.78,0.89 -6.65,2.45l-15.95 13.28 0 37.07zm83.81 7.04l-87.33 0c-1.94,0 -3.52,-1.57 -3.52,-3.52l0 -42.24c0,-1.04 0.46,-2.03 1.27,-2.7l17.21 -14.33c3.11,-2.6 7.07,-4.05 11.13,-4.09l45.79 0c6.65,-0.16 12.38,5.13 12.59,11.92 0,0.04 0.01,0.36 0.01,0.4 0,6.8 -5.52,12.32 -12.32,12.32l-22.88 0c-1.94,0 -3.52,1.57 -3.52,3.52 0,1.94 1.58,3.52 3.52,3.52l41.11 0 39.35 -28.1c2.97,-2.13 6.62,-2.98 10.22,-2.39 3.62,0.59 6.79,2.57 8.92,5.55 0.22,0.29 0.43,0.62 0.63,0.96 3.65,6.11 1.96,14.13 -3.83,18.26l-42.67 35.26c-4.4,3.65 -9.97,5.66 -15.69,5.67z"/>
   <path class="fil0" d="M44.13 216.7l-38.61 0 0 -7.04 35.09 0 0 -52.8 -35.09 0 0 -7.04 38.61 0c1.94,0 3.52,1.57 3.52,3.52l0 59.84c0,1.94 -1.58,3.52 -3.52,3.52z"/>
   <path class="fil0" d="M23.11 188.55c-1.94,0 -3.52,1.57 -3.52,3.52 0,1.94 1.58,3.52 3.52,3.52 1.94,0 3.52,-1.58 3.52,-3.52 0,-1.94 -1.58,-3.52 -3.52,-3.52zm0 14.08c-5.82,0 -10.56,-4.74 -10.56,-10.56 0,-5.82 4.74,-10.56 10.56,-10.56 5.82,0 10.56,4.74 10.56,10.56 0,5.82 -4.74,10.56 -10.56,10.56z"/>
   <path class="fil0" d="M12.91 121.67c1.63,8.02 8.74,14.08 17.24,14.08l161.91 0c8.5,0 15.61,-6.06 17.24,-14.08l-196.4 0zm179.16 21.12l-161.91 0c-13.59,0 -24.64,-11.06 -24.64,-24.64 0,-1.94 1.58,-3.52 3.52,-3.52l204.15 0c1.94,0 3.52,1.57 3.52,3.52 0,13.58 -11.06,24.64 -24.64,24.64z"/>
   <path class="fil0" d="M26.63 114.63l168.95 0c0,-46.58 -37.9,-84.48 -84.48,-84.48 -46.58,0 -84.48,37.9 -84.48,84.48zm172.47 7.04l-175.99 0c-1.94,0 -3.52,-1.57 -3.52,-3.52l0 -3.52c0,-50.46 41.06,-91.52 91.52,-91.52 50.46,0 91.52,41.06 91.52,91.52l0 3.52c0,1.95 -1.57,3.52 -3.52,3.52z"/>
   <path class="fil0" d="M52.3 75.96l-5.87 -3.89c2.04,-3.07 4.32,-6.04 6.78,-8.8l5.26 4.68c-2.24,2.52 -4.32,5.22 -6.18,8.02z"/>
   <path class="fil0" d="M62.94 63.34l-4.82 -5.13c14.41,-13.54 33.22,-21.01 52.99,-21.02l0 7.04c-17.97,0.01 -35.08,6.8 -48.17,19.11z"/>
   <polygon class="fil0" points="100.55,12.56 121.67,12.56 121.67,5.52 100.55,5.52 "/>
   <polygon class="fil0" points="107.59,26.63 114.63,26.63 114.63,9.04 107.59,9.04 "/>
  </g>
 </g>
</svg>
