<?xml version="1.0" encoding="iso-8859-1"?>
<!-- Generator: Adobe Illustrator 19.0.0, SVG Export Plug-In . SVG Version: 6.00 Build 0)  -->
<svg xmlns="http://www.w3.org/2000/svg" xmlns:xlink="http://www.w3.org/1999/xlink" version="1.1" id="Layer_1" x="0px" y="0px" viewBox="0 0 512 512" style="enable-background:new 0 0 512 512;" xml:space="preserve" width="32px" height="32px">
<g>
	<g>
		<g>
			<path d="M0.427,219.459v139.43H512v-139.43H0.427z M57.431,327.568H31.748v-76.788h25.683V327.568z M422.214,327.568H88.752     v-76.788h333.462V327.568z M480.679,327.568h-27.145v-76.788h27.145V327.568z" fill="#000000"/>
			<path d="M159.488,199.445c41.801,0,76.385-31.387,81.486-71.827c6.216-2.077,16.277-3.891,27.605,0.031     c5.115,40.425,39.693,71.796,81.483,71.796c39.948,0,73.31-28.663,80.645-66.499h37.971v-31.321h-37.971     c-7.334-37.837-40.698-66.499-80.645-66.499c-37.833,0-69.758,25.712-79.262,60.574c-12.15-2.74-23.185-1.891-32.022,0.097     c-9.471-34.912-41.421-60.672-79.29-60.672c-39.948,0-73.311,28.663-80.645,66.499H43.749v31.321h35.093     C86.177,170.781,119.54,199.445,159.488,199.445z M350.062,66.446c28.033,0,50.839,22.806,50.839,50.839     c0,28.033-22.807,50.839-50.839,50.839c-28.033,0-50.839-22.806-50.839-50.839C299.223,89.252,322.029,66.446,350.062,66.446z      M159.488,66.446c28.033,0,50.838,22.806,50.838,50.839c0,28.033-22.806,50.839-50.838,50.839     c-28.032,0-50.839-22.806-50.839-50.839C108.649,89.252,131.454,66.446,159.488,66.446z" fill="#000000"/>
			<path d="M109.822,382.423l-0.607,0.228h-1.518v0.57L0,423.651l107.698,52.493v0.731H512v-94.223H109.908L109.822,382.423z      M107.698,441.302L79.156,427.39l28.542-10.715V441.302z M453.534,413.972h27.145v31.582h-27.145V413.972z M139.018,413.972     h283.195v31.582H139.018V413.972z" fill="#000000"/>
		</g>
	</g>
</g>
<g>
</g>
<g>
</g>
<g>
</g>
<g>
</g>
<g>
</g>
<g>
</g>
<g>
</g>
<g>
</g>
<g>
</g>
<g>
</g>
<g>
</g>
<g>
</g>
<g>
</g>
<g>
</g>
<g>
</g>
</svg>
