<svg height="512" viewBox="0 0 64 64" width="512" xmlns="http://www.w3.org/2000/svg"><path d="m15 57h46v-24h-58v24zm6-20h22v8h-22zm34 12v4h-46v-4zm-48-12h8v4h-8z" fill="#9bc9ff"/><g fill="#57a4ff"><path d="m61 32h-5v-15a1 1 0 0 0 -1-1h-2v-13a1 1 0 0 0 -1-1h-40a1 1 0 0 0 -1 1v13h-2a1 1 0 0 0 -1 1v15h-5a1 1 0 0 0 -1 1v24a1 1 0 0 0 1 1h5v3a1 1 0 0 0 1 1h6a1 1 0 0 0 1-1v-3h32v3a1 1 0 0 0 1 1h6a1 1 0 0 0 1-1v-3h5a1 1 0 0 0 1-1v-24a1 1 0 0 0 -1-1zm-7 0h-4v-14h4zm-41-28h38v12h-2a1 1 0 0 0 -1 1v15h-32v-15a1 1 0 0 0 -1-1h-2zm-3 14h4v14h-4zm4 42h-4v-2h4zm40 0h-4v-2h4zm6-4h-56v-22h56z"/><path d="m55 48h-46a1 1 0 0 0 -1 1v4a1 1 0 0 0 1 1h46a1 1 0 0 0 1-1v-4a1 1 0 0 0 -1-1zm-1 4h-44v-2h44z"/><path d="m21 46h22a1 1 0 0 0 1-1v-8a1 1 0 0 0 -1-1h-22a1 1 0 0 0 -1 1v8a1 1 0 0 0 1 1zm1-8h20v6h-20z"/><path d="m7 42h8a1 1 0 0 0 1-1v-4a1 1 0 0 0 -1-1h-8a1 1 0 0 0 -1 1v4a1 1 0 0 0 1 1zm7-2h-2v-2h2zm-6-2h2v2h-2z"/><path d="m48 36h4v2h-4z"/><path d="m54 36h4v2h-4z"/><path d="m48 40h4v2h-4z"/><path d="m54 40h4v2h-4z"/><path d="m48 44h4v2h-4z"/><path d="m54 44h4v2h-4z"/><path d="m34 39h2v2h-2z"/><path d="m40 39h-3v2h2v2h2v-3a1 1 0 0 0 -1-1z"/></g></svg>