<?xml version="1.0" encoding="UTF-8"?>
<!DOCTYPE svg PUBLIC "-//W3C//DTD SVG 1.1//EN" "http://www.w3.org/Graphics/SVG/1.1/DTD/svg11.dtd">
<!-- Creator: CorelDRAW 2017 -->
<svg xmlns="http://www.w3.org/2000/svg" xml:space="preserve" width="0.22222in" height="0.22222in" version="1.1" style="shape-rendering:geometricPrecision; text-rendering:geometricPrecision; image-rendering:optimizeQuality; fill-rule:evenodd; clip-rule:evenodd"
viewBox="0 0 222.22 222.22"
 xmlns:xlink="http://www.w3.org/1999/xlink">
 <defs>
  <style type="text/css">
   <![CDATA[
    .fil0 {fill:#7B7B7B;fill-rule:nonzero}
   ]]>
  </style>
 </defs>
 <g id="Layer_x0020_1">
  <metadata id="CorelCorpID_0Corel-Layer"/>
  <g id="_2607058921056">
   <path class="fil0" d="M173.98 136.22c0.19,-0.18 0.38,-0.36 0.57,-0.54 4.56,-4.48 7.07,-10.48 7.07,-16.89l0 -12.08c0,-12.13 -9.87,-22 -22,-22l-12.5 0c-7.1,0 -12.87,5.78 -12.87,12.87l0 20.89c0,6.11 2.3,11.73 6.08,15.99 -3.02,0.94 -5.76,2.68 -7.9,5.08l-16.14 15.7c-0.08,0.08 -0.17,0.17 -0.24,0.26 -1,1.15 -2.46,1.81 -3.98,1.81 -1.53,0 -2.98,-0.66 -3.99,-1.81 -0.11,-0.13 -0.24,-0.26 -0.38,-0.38l-17.39 -15.52c-2.28,-2.49 -5.42,-4 -8.77,-4.25 2.17,-4.42 3.39,-9.39 3.39,-14.64l0 -10.22c0,-6.17 -2.4,-11.98 -6.77,-16.34 -4.37,-4.37 -10.17,-6.77 -16.34,-6.77l-0.48 0c-13.11,0 -23.78,10.62 -23.78,23.68 0,10.91 -4.89,21.08 -13.41,27.9l-3.68 2.94c-2.29,1.83 -3.14,4.81 -2.17,7.57 0.97,2.77 3.5,4.56 6.43,4.56l9.1 0c-0.69,1.54 -1.29,3.15 -1.8,4.82l-11.83 38.95c-1.49,4.9 -0.63,10.36 2.25,14.23 2.2,2.97 5.39,4.67 8.76,4.67l55.25 0c3.37,0 6.56,-1.7 8.76,-4.67 2.87,-3.87 3.74,-9.33 2.25,-14.23l-10.69 -35.18c-0.7,-2.33 -3.17,-3.64 -5.49,-2.93 -2.33,0.71 -3.64,3.17 -2.93,5.49l10.69 35.17c0.78,2.56 0.11,5.08 -0.89,6.44 -0.31,0.42 -0.94,1.11 -1.69,1.11l-55.25 0c-0.76,0 -1.39,-0.69 -1.7,-1.11 -1,-1.36 -1.67,-3.87 -0.89,-6.44l11.83 -38.95c0.81,-2.7 1.93,-5.17 3.31,-7.38l7.84 0c9.26,0 17.66,-3.8 23.7,-9.92l5.27 0c1.27,0 2.48,0.55 3.31,1.5 0.12,0.13 0.25,0.26 0.38,0.39l17.39 15.52c2.67,2.92 6.44,4.59 10.41,4.59 4,0 7.81,-1.7 10.48,-4.67l16.15 -15.71c0.08,-0.08 0.16,-0.17 0.24,-0.26 1.67,-1.91 4.09,-3 6.62,-3l19.31 0c2.56,0 4.9,1.06 6.59,2.98 1.7,1.92 2.45,4.37 2.13,6.95l-2.6 22.36 -12.23 6.11 -11.52 -5.76 -1.66 -13.93c-0.29,-2.41 -2.48,-4.14 -4.89,-3.85 -2.41,0.29 -4.14,2.48 -3.85,4.89l5.57 46.77c0.55,4.39 4.3,7.71 8.73,7.71l15.98 0c4.43,0 8.18,-3.31 8.74,-7.74l6.46 -55.51c0.63,-5.01 -0.93,-10.05 -4.27,-13.83 -1.19,-1.35 -2.57,-2.49 -4.07,-3.41zm-97.85 -15.51c0,13.52 -11.01,24.53 -24.53,24.53l-0.8 0c6.07,-4.85 10.88,-11.48 13.62,-19.3 0.8,-2.3 -0.4,-4.81 -2.69,-5.61 -2.3,-0.8 -4.81,0.4 -5.61,2.7 -4.09,11.68 -13.92,19.99 -25.28,21.83 9.89,-8.48 15.52,-20.7 15.52,-33.79 0,-8.2 6.72,-14.89 14.98,-14.89l0.48 0c3.82,0 7.42,1.49 10.12,4.2 2.7,2.7 4.19,6.3 4.19,10.12l0 10.22zm96.7 -1.92c-0,4.02 -1.58,7.79 -4.45,10.61 -2.87,2.82 -6.68,4.33 -10.7,4.27 -8.06,-0.13 -14.63,-6.95 -14.63,-15.2l0 -1.23c4.93,2.99 10.83,4.62 16.86,4.62 2.43,0 4.4,-1.97 4.4,-4.4 0,-2.43 -1.97,-4.4 -4.4,-4.4 -4.95,0 -9.75,-1.48 -13.52,-4.15 -2.09,-1.48 -3.34,-3.95 -3.34,-6.6l0 -4.73c0,-2.24 1.83,-4.07 4.07,-4.07l12.5 0c7.28,0 13.2,5.92 13.2,13.2l0 12.08zm-5.7 89.12l-15.98 0.02 -2.67 -22.36 8.31 4.15c1.24,0.62 2.7,0.62 3.93,0l9.05 -4.52 -2.64 22.7z"/>
   <path class="fil0" d="M157.81 5.51c-10.34,0 -20.51,2.73 -29.42,7.89 -6.7,3.88 -12.58,9.07 -17.29,15.2 -4.7,-6.13 -10.59,-11.32 -17.29,-15.2 -8.91,-5.16 -19.08,-7.89 -29.42,-7.89 -32.48,0 -58.89,26.5 -58.89,59.07 0,13.4 4.9,26.27 13.8,36.26 0.87,0.98 2.07,1.47 3.29,1.47 1.04,0 2.09,-0.37 2.93,-1.11 1.81,-1.61 1.98,-4.4 0.36,-6.21 -7.46,-8.37 -11.57,-19.17 -11.57,-30.41 0,-27.72 22.47,-50.27 50.09,-50.27 17.72,0 33.77,9.11 42.93,24.37 0.8,1.33 2.23,2.14 3.77,2.14 1.54,0 2.98,-0.81 3.77,-2.14 9.16,-15.26 25.21,-24.37 42.93,-24.37 27.62,0 50.09,22.55 50.09,50.27 0,11.24 -4.11,22.03 -11.57,30.41 -1.61,1.81 -1.45,4.59 0.36,6.21 1.82,1.62 4.6,1.46 6.22,-0.36 8.89,-9.98 13.79,-22.86 13.79,-36.26 0,-32.57 -26.42,-59.07 -58.89,-59.07z"/>
  </g>
 </g>
</svg>
