<?xml version="1.0" encoding="iso-8859-1"?>
<!-- Generator: Adobe Illustrator 19.0.0, SVG Export Plug-In . SVG Version: 6.00 Build 0)  -->
<svg xmlns="http://www.w3.org/2000/svg" xmlns:xlink="http://www.w3.org/1999/xlink" version="1.1" id="Capa_1" x="0px" y="0px" viewBox="0 0 512 512" style="enable-background:new 0 0 512 512;" xml:space="preserve" width="32px" height="32px">
<g>
	<g>
		<g>
			<path d="M512,159.433c0.097-35.249-28.399-63.902-63.648-64c-20.462-0.056-39.71,9.702-51.76,26.24l-125.408-50.24     c0.442-2.647,0.715-5.319,0.816-8c0.048-23.968-13.337-45.942-34.656-56.896l-14.688,28.432     c15.711,8.094,21.885,27.392,13.79,43.102c-8.094,15.711-27.392,21.885-43.102,13.79C182.699,86.377,176.007,75.408,176,63.433     v-1.472l-32-1.6c0,0.992,0,2.016,0,3.072c-0.002,12.59,3.735,24.897,10.736,35.36l-61.44,68.08     c-9.019-4.815-19.072-7.368-29.296-7.44c-35.346,0-64,28.654-64,64c0,35.346,28.654,64,64,64c3.219-0.081,6.428-0.402,9.6-0.96     l47.456,110.56c-27.939,21.478-33.176,61.538-11.698,89.477c21.478,27.939,61.538,33.176,89.477,11.698     c14.771-11.356,23.842-28.601,24.829-47.206l118.992-23.76c15.263,31.783,53.401,45.176,85.184,29.913     c31.783-15.263,45.176-53.401,29.913-85.184c-6.282-13.081-16.832-23.631-29.913-29.913l23.76-118.992     C485.413,221.208,511.907,193.297,512,159.433z M64,255.433c-17.673,0-32-14.327-32-32s14.327-32,32-32s32,14.327,32,32     S81.673,255.433,64,255.433z M160,479.433c-17.673,0-32-14.327-32-32c0-17.673,14.327-32,32-32s32,14.327,32,32     C192,465.106,177.673,479.433,160,479.433z M336.368,395.865L336.368,395.865l-118.992,23.76     c-10.615-22.057-32.897-36.113-57.376-36.192c-3.219,0.081-6.428,0.402-9.6,0.96l-47.424-110.56     c26.704-20.303,32.967-57.896,14.288-85.76l61.44-68.08c9.019,4.815,19.072,7.368,29.296,7.44     c20.339-0.054,39.433-9.8,51.408-26.24l125.408,50.24c-0.442,2.647-0.715,5.319-0.816,8     c0.079,24.479,14.135,46.761,36.192,57.376l-23.76,118.992C364.038,337.608,338.175,363.471,336.368,395.865z M432,399.433     c0,17.673-14.327,32-32,32c-17.673,0-32-14.327-32-32c0-17.673,14.327-32,32-32C417.673,367.433,432,381.76,432,399.433z      M416,159.433c0-17.673,14.327-32,32-32c17.673,0,32,14.327,32,32s-14.327,32-32,32C430.327,191.433,416,177.106,416,159.433z" fill="#000000"/>
			<path d="M201.92,32.009l-6.016-31.44c-14.095,2.733-26.866,10.113-36.272,20.96l24.176,20.944     C188.503,37.055,194.881,33.37,201.92,32.009z" fill="#000000"/>
		</g>
	</g>
</g>
<g>
</g>
<g>
</g>
<g>
</g>
<g>
</g>
<g>
</g>
<g>
</g>
<g>
</g>
<g>
</g>
<g>
</g>
<g>
</g>
<g>
</g>
<g>
</g>
<g>
</g>
<g>
</g>
<g>
</g>
</svg>
